<svg width="16" height="16" viewBox="0 0 16 16" xmlns="http://www.w3.org/2000/svg">
  <!-- Open folder shape -->
  <path d="M 1 4 L 1 13 Q 1 14 2 14 L 14 14 Q 15 14 15 13 L 15 6 L 13 8 L 3 8 L 1 6 Z" 
        fill="#FFE135" 
        stroke="#F4C430" 
        stroke-width="0.5"/>
  
  <!-- Folder tab -->
  <path d="M 1 3 Q 1 2 2 2 L 6 2 Q 6.5 2 7 3 L 8 4 L 2 4 Q 1 4 1 3 Z" 
        fill="#F4C430"/>
  
  <!-- Open folder front -->
  <path d="M 3 8 L 13 8 L 14 14 L 2 14 Z" 
        fill="#FDD44B" 
        stroke="#F4C430" 
        stroke-width="0.3"/>
  
  <!-- Banana on folder -->
  <path d="M 6 10 C 6 8.5, 6.5 7.5, 8 7 C 9 6.75, 9.75 7, 10 7.5 C 10.25 8, 10 8.5, 9.5 9 C 8.5 10, 7.5 11, 6.5 12 C 6 12.5, 5.5 12.5, 5 12 C 4.75 11.5, 4.75 11.25, 5 11 C 5 9.5, 5.5 8.5, 6 8 Z" 
        fill="#8B4513" 
        stroke="#6B3410" 
        stroke-width="0.3"/>
</svg>