<svg width="16" height="16" viewBox="0 0 16 16" xmlns="http://www.w3.org/2000/svg">
  <!-- Folder shape -->
  <path d="M 1 4 L 1 13 Q 1 14 2 14 L 14 14 Q 15 14 15 13 L 15 5 Q 15 4 14 4 L 8 4 L 7 3 Q 6.5 2 6 2 L 2 2 Q 1 2 1 3 Z" 
        fill="#FFE135" 
        stroke="#F4C430" 
        stroke-width="0.5"/>
  
  <!-- Folder tab -->
  <path d="M 1 3 Q 1 2 2 2 L 6 2 Q 6.5 2 7 3 L 8 4 L 2 4 Q 1 4 1 3 Z" 
        fill="#F4C430"/>
  
  <!-- Banana on folder -->
  <path d="M 6 8 C 6 6.5, 6.5 5.5, 8 5 C 9 4.75, 9.75 5, 10 5.5 C 10.25 6, 10 6.5, 9.5 7 C 8.5 8, 7.5 9, 6.5 10 C 6 10.5, 5.5 10.5, 5 10 C 4.75 9.5, 4.75 9.25, 5 9 C 5 7.5, 5.5 6.5, 6 6 Z" 
        fill="#8B4513" 
        stroke="#6B3410" 
        stroke-width="0.3"/>
</svg>